<?xml version="1.0" encoding="UTF-8" standalone="no"?>
<!DOCTYPE svg PUBLIC "-//W3C//DTD SVG 1.1//EN" "http://www.w3.org/Graphics/SVG/1.1/DTD/svg11.dtd">
<svg xmlns="http://www.w3.org/2000/svg" version="1.1" viewBox="0.00 0.00 1080.00 1080.00">
<g stroke-width="2.00" fill="none" stroke-linecap="butt">
<path stroke="#808080" vector-effect="non-scaling-stroke" d="
  M 142.90 271.88
  Q 142.25 273.41 141.38 274.64
  Q 134.39 284.57 127.52 296.27
  C 105.85 333.18 88.81 372.68 76.38 413.08
  Q 64.87 450.46 59.76 485.39
  Q 55.86 512.07 55.41 534.99
  Q 54.85 563.25 59.35 592.21
  Q 64.56 625.70 79.94 661.76
  C 81.54 665.51 83.03 667.96 85.38 672.25
  A 1.17 1.15 -45.2 0 1 85.37 673.38
  Q 61.23 716.31 45.96 763.01
  Q 44.12 768.64 42.75 774.04
  Q 40.00 784.88 39.89 785.20
  C 38.37 789.66 41.52 796.96 43.11 800.92
  Q 51.35 821.34 62.36 838.65
  C 67.40 846.58 73.61 856.01 79.53 863.57
  Q 93.46 881.36 108.98 896.52
  Q 145.88 932.56 187.01 957.04
  Q 197.87 963.51 211.46 971.12
  Q 219.43 975.58 250.19 989.79
  Q 255.83 992.40 277.51 1000.66
  C 302.34 1010.13 328.04 1017.61 353.50 1023.95
  C 371.03 1028.32 380.42 1029.71 401.86 1033.74
  Q 439.86 1040.87 482.50 1043.68
  Q 505.62 1045.21 539.76 1045.28
  C 572.93 1045.36 604.24 1044.20 636.59 1040.09
  Q 667.12 1036.22 675.61 1034.55
  Q 680.01 1033.68 689.55 1032.02
  Q 710.77 1028.33 731.55 1023.04
  Q 742.78 1020.18 769.36 1012.48
  C 780.64 1009.21 795.38 1003.71 803.18 1000.87
  C 822.19 993.96 836.22 987.39 858.45 976.94
  Q 861.88 975.32 883.39 963.41
  C 894.81 957.08 908.61 947.88 916.92 942.17
  Q 926.42 935.63 943.02 922.53
  Q 951.82 915.59 968.06 900.31
  C 995.71 874.30 1018.80 842.88 1034.48 809.00
  Q 1037.39 802.71 1039.87 794.88
  C 1041.70 789.09 1041.19 785.75 1039.71 780.07
  Q 1034.17 758.92 1026.84 740.14
  Q 1013.51 706.03 995.91 673.90
  A 2.18 2.14 44.0 0 1 995.86 671.93
  C 1001.19 661.02 1006.14 650.04 1009.68 638.38
  C 1013.00 627.47 1016.68 617.10 1018.90 605.45
  Q 1022.02 589.10 1024.25 571.25
  Q 1026.44 553.71 1025.50 527.02
  Q 1024.09 487.24 1013.78 444.40
  Q 996.14 371.10 958.52 303.46
  Q 948.66 285.73 938.17 271.07
  A 0.23 0.23 0.0 0 1 938.29 270.72
  Q 943.59 269.28 948.45 266.43
  Q 967.21 255.46 979.75 238.44
  C 992.08 221.69 997.05 203.16 997.81 182.27
  C 998.08 174.82 996.61 165.06 995.67 159.28
  Q 994.12 149.82 990.27 139.19
  C 974.98 97.05 942.85 64.99 901.56 47.94
  Q 895.45 45.41 887.64 43.31
  Q 876.24 40.24 873.40 39.88
  Q 860.29 38.21 855.50 38.15
  Q 833.44 37.87 814.30 45.99
  Q 797.74 53.01 784.39 66.62
  Q 771.65 79.61 763.45 96.41
  Q 759.57 104.34 756.04 113.91
  A 0.73 0.73 0.0 0 1 755.04 114.31
  Q 748.56 111.15 740.29 107.76
  Q 691.51 87.77 639.29 78.48
  Q 611.31 73.51 588.43 71.38
  Q 561.72 68.90 526.40 69.47
  C 513.22 69.69 494.38 71.47 484.16 72.42
  Q 479.46 72.86 455.85 76.27
  Q 441.14 78.39 429.81 80.90
  Q 409.25 85.45 404.04 86.85
  Q 389.01 90.89 368.13 97.88
  Q 346.70 105.05 326.18 114.60
  A 0.47 0.47 0.0 0 1 325.53 114.29
  C 322.39 101.97 315.80 90.29 308.92 80.07
  Q 292.34 55.42 264.45 44.82
  Q 251.86 40.04 234.59 38.31
  C 226.61 37.51 217.35 38.25 210.25 39.56
  Q 196.69 42.07 182.96 46.95
  C 170.20 51.48 159.72 57.91 148.18 65.77
  Q 138.27 72.52 129.88 80.97
  Q 111.47 99.52 100.42 119.66
  Q 87.34 143.48 84.79 170.46
  Q 80.52 215.50 110.16 248.06
  Q 123.85 263.09 142.58 271.08
  A 0.61 0.61 0.0 0 1 142.90 271.88"
/>
<path stroke="#808080" vector-effect="non-scaling-stroke" d="
  M 959.25 698.24
  Q 970.39 682.33 977.67 667.20
  Q 985.45 651.03 987.63 645.13
  Q 1009.45 586.05 1006.82 525.56
  Q 1004.76 477.98 991.89 432.83
  Q 985.87 411.70 983.71 405.28
  Q 974.99 379.32 963.88 353.91
  Q 954.99 333.57 941.57 309.68
  Q 929.21 287.68 914.75 268.03
  Q 893.32 238.90 869.06 214.45
  Q 835.19 180.32 793.54 154.95
  C 766.26 138.34 736.07 124.16 705.28 113.74
  Q 688.93 108.21 677.17 104.98
  Q 651.39 97.90 617.75 92.90
  Q 611.66 91.99 605.58 90.97
  Q 599.12 89.88 593.37 89.54
  C 586.27 89.12 578.88 87.88 571.52 87.40
  Q 531.90 84.82 491.71 89.20
  Q 486.96 89.72 484.83 89.80
  C 479.07 90.02 475.29 91.13 468.55 91.81
  Q 466.52 92.02 459.18 93.32
  Q 428.12 98.82 423.15 100.45
  C 418.26 102.05 412.71 102.66 407.54 104.19
  Q 386.88 110.28 376.14 113.89
  Q 343.84 124.76 310.83 142.08
  C 304.60 145.35 297.97 149.58 291.00 153.51
  Q 284.41 157.22 276.44 162.57
  Q 250.59 179.90 232.08 196.59
  C 224.99 202.99 221.45 206.03 215.29 212.13
  Q 179.72 247.33 152.82 288.82
  C 148.45 295.57 144.12 303.33 139.69 310.46
  Q 135.53 317.14 130.58 327.08
  Q 120.66 346.97 117.42 354.14
  Q 112.93 364.06 101.22 395.43
  Q 99.44 400.18 96.01 411.13
  Q 93.93 417.73 91.27 426.99
  Q 78.31 472.09 74.55 520.74
  Q 73.39 535.77 74.91 563.87
  C 75.50 574.78 77.70 588.57 79.35 597.17
  Q 84.99 626.47 97.33 655.41
  Q 100.32 662.43 104.25 669.67
  Q 110.77 681.68 112.05 683.68
  Q 116.66 690.94 124.14 701.60
  Q 130.77 711.06 137.22 718.52
  Q 166.85 752.74 202.30 775.73
  Q 216.37 784.86 230.75 792.79
  C 246.94 801.72 265.64 809.61 284.49 816.88
  C 297.18 821.78 304.17 823.59 321.53 829.07
  C 327.40 830.93 332.22 831.84 337.36 833.47
  Q 343.33 835.36 349.24 836.74
  Q 429.18 855.39 506.26 859.21
  Q 529.28 860.34 567.65 859.71
  C 582.37 859.47 599.68 857.98 613.99 856.73
  Q 653.12 853.33 694.96 845.60
  Q 721.14 840.77 743.23 834.44
  Q 757.98 830.21 764.74 828.21
  Q 807.42 815.57 847.45 794.69
  C 883.65 775.80 915.36 751.43 941.37 721.37
  Q 950.16 711.21 959.25 698.24"
/>
<path stroke="#808080" vector-effect="non-scaling-stroke" d="
  M 313.93 406.17
  C 304.77 416.32 296.89 427.66 288.51 437.26
  Q 276.75 450.74 266.82 464.30
  C 259.76 473.95 253.04 485.84 249.97 497.46
  C 248.74 502.12 247.75 505.23 247.14 508.82
  C 243.57 529.56 247.44 551.38 260.17 568.06
  Q 269.65 580.50 282.08 587.47
  Q 304.41 600.00 330.40 596.43
  Q 350.96 593.60 366.84 581.80
  Q 385.81 567.70 398.26 546.52
  C 408.81 528.58 415.69 516.09 428.92 497.61
  Q 438.30 484.51 443.98 469.99
  Q 453.72 445.09 448.59 417.12
  Q 447.85 413.11 446.11 408.08
  Q 443.71 401.13 442.72 399.26
  Q 427.72 370.98 396.49 367.61
  C 384.07 366.28 371.72 369.06 359.58 373.42
  Q 354.36 375.29 348.71 378.47
  Q 328.93 389.56 313.93 406.17"
/>
<path stroke="#808080" vector-effect="non-scaling-stroke" d="
  M 815.00 578.03
  C 829.54 564.57 837.59 546.29 838.04 526.39
  Q 838.41 509.63 833.70 495.46
  Q 827.06 475.43 811.03 455.67
  Q 802.74 445.44 789.76 430.37
  C 786.29 426.34 782.61 420.81 779.72 417.10
  Q 771.91 407.05 762.00 397.50
  Q 741.21 377.47 714.44 369.81
  C 696.48 364.67 674.59 366.49 659.17 378.01
  C 642.75 390.26 635.10 408.71 633.30 428.74
  Q 632.32 439.70 634.96 452.62
  Q 637.73 466.20 641.93 475.56
  Q 647.30 487.51 657.81 501.53
  C 662.41 507.65 665.34 512.51 668.97 517.82
  C 674.57 526.02 680.64 537.62 684.83 544.90
  C 689.02 552.18 693.23 558.26 698.13 564.13
  Q 713.62 582.71 736.47 591.79
  C 762.36 602.07 794.32 597.17 815.00 578.03"
/>
<path stroke="#808080" vector-effect="non-scaling-stroke" d="
  M 543.36 628.94
  C 549.57 633.38 558.72 636.73 566.64 635.63
  Q 578.04 634.04 587.29 627.11
  C 591.17 624.20 597.52 619.75 597.79 614.46
  C 597.93 611.82 595.00 609.39 592.89 611.59
  C 583.78 621.06 566.42 629.64 553.54 623.01
  C 551.00 621.70 548.20 620.12 548.16 617.52
  Q 548.06 610.02 548.12 581.99
  A 0.62 0.62 0.0 0 1 548.59 581.39
  C 563.98 577.56 578.27 571.69 590.40 561.50
  C 593.74 558.69 598.61 553.79 600.55 550.29
  C 605.87 540.68 605.91 529.15 598.99 520.45
  Q 594.70 515.05 588.45 511.53
  C 577.74 505.50 566.32 502.98 553.51 501.65
  Q 534.31 499.66 515.02 504.28
  C 501.17 507.60 484.39 515.73 480.66 530.43
  C 473.48 558.80 515.09 576.50 535.81 581.08
  A 1.74 1.74 0.0 0 1 537.18 582.78
  L 537.18 617.47
  A 3.25 3.24 -26.5 0 1 536.52 619.43
  C 527.08 631.87 506.48 622.41 496.94 615.27
  Q 493.18 612.45 491.83 611.53
  A 1.35 1.33 -33.4 0 0 490.82 611.33
  C 486.97 612.08 488.33 616.78 489.77 618.72
  Q 495.43 626.27 503.76 630.21
  Q 510.82 633.54 514.84 634.47
  Q 529.95 637.97 542.35 628.95
  A 0.87 0.85 -44.9 0 1 543.36 628.94"
/>
<path stroke="#808080" vector-effect="non-scaling-stroke" d="
  M 404.6391 457.8938
  A 22.13 20.60 -38.5 0 0 374.4962 455.5483
  A 22.13 20.60 -38.5 0 0 370.0009 485.4462
  A 22.13 20.60 -38.5 0 0 400.1438 487.7917
  A 22.13 20.60 -38.5 0 0 404.6391 457.8938"
/>
<path stroke="#808080" vector-effect="non-scaling-stroke" d="
  M 680.6567 458.6164
  A 22.04 20.84 -144.1 0 0 686.2900 488.4213
  A 22.04 20.84 -144.1 0 0 716.3633 484.4636
  A 22.04 20.84 -144.1 0 0 710.7300 454.6587
  A 22.04 20.84 -144.1 0 0 680.6567 458.6164"
/>
<path stroke="#808080" vector-effect="non-scaling-stroke" d="
  M 565.58 519.36
  A 23.12 8.33 0.0 0 0 542.46 511.03
  A 23.12 8.33 0.0 0 0 519.34 519.36
  A 23.12 8.33 0.0 0 0 542.46 527.69
  A 23.12 8.33 0.0 0 0 565.58 519.36"
/>
</g>
<path fill="#ffffff" d="
  M 1080.00 0.00
  L 1080.00 1080.00
  L 0.00 1080.00
  L 0.00 0.00
  L 1080.00 0.00
  Z
  M 142.90 271.88
  Q 142.25 273.41 141.38 274.64
  Q 134.39 284.57 127.52 296.27
  C 105.85 333.18 88.81 372.68 76.38 413.08
  Q 64.87 450.46 59.76 485.39
  Q 55.86 512.07 55.41 534.99
  Q 54.85 563.25 59.35 592.21
  Q 64.56 625.70 79.94 661.76
  C 81.54 665.51 83.03 667.96 85.38 672.25
  A 1.17 1.15 -45.2 0 1 85.37 673.38
  Q 61.23 716.31 45.96 763.01
  Q 44.12 768.64 42.75 774.04
  Q 40.00 784.88 39.89 785.20
  C 38.37 789.66 41.52 796.96 43.11 800.92
  Q 51.35 821.34 62.36 838.65
  C 67.40 846.58 73.61 856.01 79.53 863.57
  Q 93.46 881.36 108.98 896.52
  Q 145.88 932.56 187.01 957.04
  Q 197.87 963.51 211.46 971.12
  Q 219.43 975.58 250.19 989.79
  Q 255.83 992.40 277.51 1000.66
  C 302.34 1010.13 328.04 1017.61 353.50 1023.95
  C 371.03 1028.32 380.42 1029.71 401.86 1033.74
  Q 439.86 1040.87 482.50 1043.68
  Q 505.62 1045.21 539.76 1045.28
  C 572.93 1045.36 604.24 1044.20 636.59 1040.09
  Q 667.12 1036.22 675.61 1034.55
  Q 680.01 1033.68 689.55 1032.02
  Q 710.77 1028.33 731.55 1023.04
  Q 742.78 1020.18 769.36 1012.48
  C 780.64 1009.21 795.38 1003.71 803.18 1000.87
  C 822.19 993.96 836.22 987.39 858.45 976.94
  Q 861.88 975.32 883.39 963.41
  C 894.81 957.08 908.61 947.88 916.92 942.17
  Q 926.42 935.63 943.02 922.53
  Q 951.82 915.59 968.06 900.31
  C 995.71 874.30 1018.80 842.88 1034.48 809.00
  Q 1037.39 802.71 1039.87 794.88
  C 1041.70 789.09 1041.19 785.75 1039.71 780.07
  Q 1034.17 758.92 1026.84 740.14
  Q 1013.51 706.03 995.91 673.90
  A 2.18 2.14 44.0 0 1 995.86 671.93
  C 1001.19 661.02 1006.14 650.04 1009.68 638.38
  C 1013.00 627.47 1016.68 617.10 1018.90 605.45
  Q 1022.02 589.10 1024.25 571.25
  Q 1026.44 553.71 1025.50 527.02
  Q 1024.09 487.24 1013.78 444.40
  Q 996.14 371.10 958.52 303.46
  Q 948.66 285.73 938.17 271.07
  A 0.23 0.23 0.0 0 1 938.29 270.72
  Q 943.59 269.28 948.45 266.43
  Q 967.21 255.46 979.75 238.44
  C 992.08 221.69 997.05 203.16 997.81 182.27
  C 998.08 174.82 996.61 165.06 995.67 159.28
  Q 994.12 149.82 990.27 139.19
  C 974.98 97.05 942.85 64.99 901.56 47.94
  Q 895.45 45.41 887.64 43.31
  Q 876.24 40.24 873.40 39.88
  Q 860.29 38.21 855.50 38.15
  Q 833.44 37.87 814.30 45.99
  Q 797.74 53.01 784.39 66.62
  Q 771.65 79.61 763.45 96.41
  Q 759.57 104.34 756.04 113.91
  A 0.73 0.73 0.0 0 1 755.04 114.31
  Q 748.56 111.15 740.29 107.76
  Q 691.51 87.77 639.29 78.48
  Q 611.31 73.51 588.43 71.38
  Q 561.72 68.90 526.40 69.47
  C 513.22 69.69 494.38 71.47 484.16 72.42
  Q 479.46 72.86 455.85 76.27
  Q 441.14 78.39 429.81 80.90
  Q 409.25 85.45 404.04 86.85
  Q 389.01 90.89 368.13 97.88
  Q 346.70 105.05 326.18 114.60
  A 0.47 0.47 0.0 0 1 325.53 114.29
  C 322.39 101.97 315.80 90.29 308.92 80.07
  Q 292.34 55.42 264.45 44.82
  Q 251.86 40.04 234.59 38.31
  C 226.61 37.51 217.35 38.25 210.25 39.56
  Q 196.69 42.07 182.96 46.95
  C 170.20 51.48 159.72 57.91 148.18 65.77
  Q 138.27 72.52 129.88 80.97
  Q 111.47 99.52 100.42 119.66
  Q 87.34 143.48 84.79 170.46
  Q 80.52 215.50 110.16 248.06
  Q 123.85 263.09 142.58 271.08
  A 0.61 0.61 0.0 0 1 142.90 271.88
  Z"
/>
<path fill="#000000" d="
  M 142.90 271.88
  A 0.61 0.61 0.0 0 0 142.58 271.08
  Q 123.85 263.09 110.16 248.06
  Q 80.52 215.50 84.79 170.46
  Q 87.34 143.48 100.42 119.66
  Q 111.47 99.52 129.88 80.97
  Q 138.27 72.52 148.18 65.77
  C 159.72 57.91 170.20 51.48 182.96 46.95
  Q 196.69 42.07 210.25 39.56
  C 217.35 38.25 226.61 37.51 234.59 38.31
  Q 251.86 40.04 264.45 44.82
  Q 292.34 55.42 308.92 80.07
  C 315.80 90.29 322.39 101.97 325.53 114.29
  A 0.47 0.47 0.0 0 0 326.18 114.60
  Q 346.70 105.05 368.13 97.88
  Q 389.01 90.89 404.04 86.85
  Q 409.25 85.45 429.81 80.90
  Q 441.14 78.39 455.85 76.27
  Q 479.46 72.86 484.16 72.42
  C 494.38 71.47 513.22 69.69 526.40 69.47
  Q 561.72 68.90 588.43 71.38
  Q 611.31 73.51 639.29 78.48
  Q 691.51 87.77 740.29 107.76
  Q 748.56 111.15 755.04 114.31
  A 0.73 0.73 0.0 0 0 756.04 113.91
  Q 759.57 104.34 763.45 96.41
  Q 771.65 79.61 784.39 66.62
  Q 797.74 53.01 814.30 45.99
  Q 833.44 37.87 855.50 38.15
  Q 860.29 38.21 873.40 39.88
  Q 876.24 40.24 887.64 43.31
  Q 895.45 45.41 901.56 47.94
  C 942.85 64.99 974.98 97.05 990.27 139.19
  Q 994.12 149.82 995.67 159.28
  C 996.61 165.06 998.08 174.82 997.81 182.27
  C 997.05 203.16 992.08 221.69 979.75 238.44
  Q 967.21 255.46 948.45 266.43
  Q 943.59 269.28 938.29 270.72
  A 0.23 0.23 0.0 0 0 938.17 271.07
  Q 948.66 285.73 958.52 303.46
  Q 996.14 371.10 1013.78 444.40
  Q 1024.09 487.24 1025.50 527.02
  Q 1026.44 553.71 1024.25 571.25
  Q 1022.02 589.10 1018.90 605.45
  C 1016.68 617.10 1013.00 627.47 1009.68 638.38
  C 1006.14 650.04 1001.19 661.02 995.86 671.93
  A 2.18 2.14 44.0 0 0 995.91 673.90
  Q 1013.51 706.03 1026.84 740.14
  Q 1034.17 758.92 1039.71 780.07
  C 1041.19 785.75 1041.70 789.09 1039.87 794.88
  Q 1037.39 802.71 1034.48 809.00
  C 1018.80 842.88 995.71 874.30 968.06 900.31
  Q 951.82 915.59 943.02 922.53
  Q 926.42 935.63 916.92 942.17
  C 908.61 947.88 894.81 957.08 883.39 963.41
  Q 861.88 975.32 858.45 976.94
  C 836.22 987.39 822.19 993.96 803.18 1000.87
  C 795.38 1003.71 780.64 1009.21 769.36 1012.48
  Q 742.78 1020.18 731.55 1023.04
  Q 710.77 1028.33 689.55 1032.02
  Q 680.01 1033.68 675.61 1034.55
  Q 667.12 1036.22 636.59 1040.09
  C 604.24 1044.20 572.93 1045.36 539.76 1045.28
  Q 505.62 1045.21 482.50 1043.68
  Q 439.86 1040.87 401.86 1033.74
  C 380.42 1029.71 371.03 1028.32 353.50 1023.95
  C 328.04 1017.61 302.34 1010.13 277.51 1000.66
  Q 255.83 992.40 250.19 989.79
  Q 219.43 975.58 211.46 971.12
  Q 197.87 963.51 187.01 957.04
  Q 145.88 932.56 108.98 896.52
  Q 93.46 881.36 79.53 863.57
  C 73.61 856.01 67.40 846.58 62.36 838.65
  Q 51.35 821.34 43.11 800.92
  C 41.52 796.96 38.37 789.66 39.89 785.20
  Q 40.00 784.88 42.75 774.04
  Q 44.12 768.64 45.96 763.01
  Q 61.23 716.31 85.37 673.38
  A 1.17 1.15 -45.2 0 0 85.38 672.25
  C 83.03 667.96 81.54 665.51 79.94 661.76
  Q 64.56 625.70 59.35 592.21
  Q 54.85 563.25 55.41 534.99
  Q 55.86 512.07 59.76 485.39
  Q 64.87 450.46 76.38 413.08
  C 88.81 372.68 105.85 333.18 127.52 296.27
  Q 134.39 284.57 141.38 274.64
  Q 142.25 273.41 142.90 271.88
  Z
  M 959.25 698.24
  Q 970.39 682.33 977.67 667.20
  Q 985.45 651.03 987.63 645.13
  Q 1009.45 586.05 1006.82 525.56
  Q 1004.76 477.98 991.89 432.83
  Q 985.87 411.70 983.71 405.28
  Q 974.99 379.32 963.88 353.91
  Q 954.99 333.57 941.57 309.68
  Q 929.21 287.68 914.75 268.03
  Q 893.32 238.90 869.06 214.45
  Q 835.19 180.32 793.54 154.95
  C 766.26 138.34 736.07 124.16 705.28 113.74
  Q 688.93 108.21 677.17 104.98
  Q 651.39 97.90 617.75 92.90
  Q 611.66 91.99 605.58 90.97
  Q 599.12 89.88 593.37 89.54
  C 586.27 89.12 578.88 87.88 571.52 87.40
  Q 531.90 84.82 491.71 89.20
  Q 486.96 89.72 484.83 89.80
  C 479.07 90.02 475.29 91.13 468.55 91.81
  Q 466.52 92.02 459.18 93.32
  Q 428.12 98.82 423.15 100.45
  C 418.26 102.05 412.71 102.66 407.54 104.19
  Q 386.88 110.28 376.14 113.89
  Q 343.84 124.76 310.83 142.08
  C 304.60 145.35 297.97 149.58 291.00 153.51
  Q 284.41 157.22 276.44 162.57
  Q 250.59 179.90 232.08 196.59
  C 224.99 202.99 221.45 206.03 215.29 212.13
  Q 179.72 247.33 152.82 288.82
  C 148.45 295.57 144.12 303.33 139.69 310.46
  Q 135.53 317.14 130.58 327.08
  Q 120.66 346.97 117.42 354.14
  Q 112.93 364.06 101.22 395.43
  Q 99.44 400.18 96.01 411.13
  Q 93.93 417.73 91.27 426.99
  Q 78.31 472.09 74.55 520.74
  Q 73.39 535.77 74.91 563.87
  C 75.50 574.78 77.70 588.57 79.35 597.17
  Q 84.99 626.47 97.33 655.41
  Q 100.32 662.43 104.25 669.67
  Q 110.77 681.68 112.05 683.68
  Q 116.66 690.94 124.14 701.60
  Q 130.77 711.06 137.22 718.52
  Q 166.85 752.74 202.30 775.73
  Q 216.37 784.86 230.75 792.79
  C 246.94 801.72 265.64 809.61 284.49 816.88
  C 297.18 821.78 304.17 823.59 321.53 829.07
  C 327.40 830.93 332.22 831.84 337.36 833.47
  Q 343.33 835.36 349.24 836.74
  Q 429.18 855.39 506.26 859.21
  Q 529.28 860.34 567.65 859.71
  C 582.37 859.47 599.68 857.98 613.99 856.73
  Q 653.12 853.33 694.96 845.60
  Q 721.14 840.77 743.23 834.44
  Q 757.98 830.21 764.74 828.21
  Q 807.42 815.57 847.45 794.69
  C 883.65 775.80 915.36 751.43 941.37 721.37
  Q 950.16 711.21 959.25 698.24
  Z"
/>
<path fill="#ffffff" d="
  M 959.25 698.24
  Q 950.16 711.21 941.37 721.37
  C 915.36 751.43 883.65 775.80 847.45 794.69
  Q 807.42 815.57 764.74 828.21
  Q 757.98 830.21 743.23 834.44
  Q 721.14 840.77 694.96 845.60
  Q 653.12 853.33 613.99 856.73
  C 599.68 857.98 582.37 859.47 567.65 859.71
  Q 529.28 860.34 506.26 859.21
  Q 429.18 855.39 349.24 836.74
  Q 343.33 835.36 337.36 833.47
  C 332.22 831.84 327.40 830.93 321.53 829.07
  C 304.17 823.59 297.18 821.78 284.49 816.88
  C 265.64 809.61 246.94 801.72 230.75 792.79
  Q 216.37 784.86 202.30 775.73
  Q 166.85 752.74 137.22 718.52
  Q 130.77 711.06 124.14 701.60
  Q 116.66 690.94 112.05 683.68
  Q 110.77 681.68 104.25 669.67
  Q 100.32 662.43 97.33 655.41
  Q 84.99 626.47 79.35 597.17
  C 77.70 588.57 75.50 574.78 74.91 563.87
  Q 73.39 535.77 74.55 520.74
  Q 78.31 472.09 91.27 426.99
  Q 93.93 417.73 96.01 411.13
  Q 99.44 400.18 101.22 395.43
  Q 112.93 364.06 117.42 354.14
  Q 120.66 346.97 130.58 327.08
  Q 135.53 317.14 139.69 310.46
  C 144.12 303.33 148.45 295.57 152.82 288.82
  Q 179.72 247.33 215.29 212.13
  C 221.45 206.03 224.99 202.99 232.08 196.59
  Q 250.59 179.90 276.44 162.57
  Q 284.41 157.22 291.00 153.51
  C 297.97 149.58 304.60 145.35 310.83 142.08
  Q 343.84 124.76 376.14 113.89
  Q 386.88 110.28 407.54 104.19
  C 412.71 102.66 418.26 102.05 423.15 100.45
  Q 428.12 98.82 459.18 93.32
  Q 466.52 92.02 468.55 91.81
  C 475.29 91.13 479.07 90.02 484.83 89.80
  Q 486.96 89.72 491.71 89.20
  Q 531.90 84.82 571.52 87.40
  C 578.88 87.88 586.27 89.12 593.37 89.54
  Q 599.12 89.88 605.58 90.97
  Q 611.66 91.99 617.75 92.90
  Q 651.39 97.90 677.17 104.98
  Q 688.93 108.21 705.28 113.74
  C 736.07 124.16 766.26 138.34 793.54 154.95
  Q 835.19 180.32 869.06 214.45
  Q 893.32 238.90 914.75 268.03
  Q 929.21 287.68 941.57 309.68
  Q 954.99 333.57 963.88 353.91
  Q 974.99 379.32 983.71 405.28
  Q 985.87 411.70 991.89 432.83
  Q 1004.76 477.98 1006.82 525.56
  Q 1009.45 586.05 987.63 645.13
  Q 985.45 651.03 977.67 667.20
  Q 970.39 682.33 959.25 698.24
  Z
  M 313.93 406.17
  C 304.77 416.32 296.89 427.66 288.51 437.26
  Q 276.75 450.74 266.82 464.30
  C 259.76 473.95 253.04 485.84 249.97 497.46
  C 248.74 502.12 247.75 505.23 247.14 508.82
  C 243.57 529.56 247.44 551.38 260.17 568.06
  Q 269.65 580.50 282.08 587.47
  Q 304.41 600.00 330.40 596.43
  Q 350.96 593.60 366.84 581.80
  Q 385.81 567.70 398.26 546.52
  C 408.81 528.58 415.69 516.09 428.92 497.61
  Q 438.30 484.51 443.98 469.99
  Q 453.72 445.09 448.59 417.12
  Q 447.85 413.11 446.11 408.08
  Q 443.71 401.13 442.72 399.26
  Q 427.72 370.98 396.49 367.61
  C 384.07 366.28 371.72 369.06 359.58 373.42
  Q 354.36 375.29 348.71 378.47
  Q 328.93 389.56 313.93 406.17
  Z
  M 815.00 578.03
  C 829.54 564.57 837.59 546.29 838.04 526.39
  Q 838.41 509.63 833.70 495.46
  Q 827.06 475.43 811.03 455.67
  Q 802.74 445.44 789.76 430.37
  C 786.29 426.34 782.61 420.81 779.72 417.10
  Q 771.91 407.05 762.00 397.50
  Q 741.21 377.47 714.44 369.81
  C 696.48 364.67 674.59 366.49 659.17 378.01
  C 642.75 390.26 635.10 408.71 633.30 428.74
  Q 632.32 439.70 634.96 452.62
  Q 637.73 466.20 641.93 475.56
  Q 647.30 487.51 657.81 501.53
  C 662.41 507.65 665.34 512.51 668.97 517.82
  C 674.57 526.02 680.64 537.62 684.83 544.90
  C 689.02 552.18 693.23 558.26 698.13 564.13
  Q 713.62 582.71 736.47 591.79
  C 762.36 602.07 794.32 597.17 815.00 578.03
  Z
  M 543.36 628.94
  C 549.57 633.38 558.72 636.73 566.64 635.63
  Q 578.04 634.04 587.29 627.11
  C 591.17 624.20 597.52 619.75 597.79 614.46
  C 597.93 611.82 595.00 609.39 592.89 611.59
  C 583.78 621.06 566.42 629.64 553.54 623.01
  C 551.00 621.70 548.20 620.12 548.16 617.52
  Q 548.06 610.02 548.12 581.99
  A 0.62 0.62 0.0 0 1 548.59 581.39
  C 563.98 577.56 578.27 571.69 590.40 561.50
  C 593.74 558.69 598.61 553.79 600.55 550.29
  C 605.87 540.68 605.91 529.15 598.99 520.45
  Q 594.70 515.05 588.45 511.53
  C 577.74 505.50 566.32 502.98 553.51 501.65
  Q 534.31 499.66 515.02 504.28
  C 501.17 507.60 484.39 515.73 480.66 530.43
  C 473.48 558.80 515.09 576.50 535.81 581.08
  A 1.74 1.74 0.0 0 1 537.18 582.78
  L 537.18 617.47
  A 3.25 3.24 -26.5 0 1 536.52 619.43
  C 527.08 631.87 506.48 622.41 496.94 615.27
  Q 493.18 612.45 491.83 611.53
  A 1.35 1.33 -33.4 0 0 490.82 611.33
  C 486.97 612.08 488.33 616.78 489.77 618.72
  Q 495.43 626.27 503.76 630.21
  Q 510.82 633.54 514.84 634.47
  Q 529.95 637.97 542.35 628.95
  A 0.87 0.85 -44.9 0 1 543.36 628.94
  Z"
/>
<path fill="#000000" d="
  M 288.51 437.26
  C 296.89 427.66 304.77 416.32 313.93 406.17
  Q 328.93 389.56 348.71 378.47
  Q 354.36 375.29 359.58 373.42
  C 371.72 369.06 384.07 366.28 396.49 367.61
  Q 427.72 370.98 442.72 399.26
  Q 443.71 401.13 446.11 408.08
  Q 447.85 413.11 448.59 417.12
  Q 453.72 445.09 443.98 469.99
  Q 438.30 484.51 428.92 497.61
  C 415.69 516.09 408.81 528.58 398.26 546.52
  Q 385.81 567.70 366.84 581.80
  Q 350.96 593.60 330.40 596.43
  Q 304.41 600.00 282.08 587.47
  Q 269.65 580.50 260.17 568.06
  C 247.44 551.38 243.57 529.56 247.14 508.82
  C 247.75 505.23 248.74 502.12 249.97 497.46
  C 253.04 485.84 259.76 473.95 266.82 464.30
  Q 276.75 450.74 288.51 437.26
  Z
  M 404.6391 457.8938
  A 22.13 20.60 -38.5 0 0 374.4962 455.5483
  A 22.13 20.60 -38.5 0 0 370.0009 485.4462
  A 22.13 20.60 -38.5 0 0 400.1438 487.7917
  A 22.13 20.60 -38.5 0 0 404.6391 457.8938
  Z"
/>
<path fill="#000000" d="
  M 815.00 578.03
  C 794.32 597.17 762.36 602.07 736.47 591.79
  Q 713.62 582.71 698.13 564.13
  C 693.23 558.26 689.02 552.18 684.83 544.90
  C 680.64 537.62 674.57 526.02 668.97 517.82
  C 665.34 512.51 662.41 507.65 657.81 501.53
  Q 647.30 487.51 641.93 475.56
  Q 637.73 466.20 634.96 452.62
  Q 632.32 439.70 633.30 428.74
  C 635.10 408.71 642.75 390.26 659.17 378.01
  C 674.59 366.49 696.48 364.67 714.44 369.81
  Q 741.21 377.47 762.00 397.50
  Q 771.91 407.05 779.72 417.10
  C 782.61 420.81 786.29 426.34 789.76 430.37
  Q 802.74 445.44 811.03 455.67
  Q 827.06 475.43 833.70 495.46
  Q 838.41 509.63 838.04 526.39
  C 837.59 546.29 829.54 564.57 815.00 578.03
  Z
  M 680.6567 458.6164
  A 22.04 20.84 -144.1 0 0 686.2900 488.4213
  A 22.04 20.84 -144.1 0 0 716.3633 484.4636
  A 22.04 20.84 -144.1 0 0 710.7300 454.6587
  A 22.04 20.84 -144.1 0 0 680.6567 458.6164
  Z"
/>
<ellipse fill="#ffffff" cx="0.00" cy="0.00" transform="translate(698.51,471.54) rotate(-144.1)" rx="22.04" ry="20.84"/>
<ellipse fill="#ffffff" cx="0.00" cy="0.00" transform="translate(387.32,471.67) rotate(-38.5)" rx="22.13" ry="20.60"/>
<path fill="#000000" d="
  M 542.35 628.95
  Q 529.95 637.97 514.84 634.47
  Q 510.82 633.54 503.76 630.21
  Q 495.43 626.27 489.77 618.72
  C 488.33 616.78 486.97 612.08 490.82 611.33
  A 1.35 1.33 -33.4 0 1 491.83 611.53
  Q 493.18 612.45 496.94 615.27
  C 506.48 622.41 527.08 631.87 536.52 619.43
  A 3.25 3.24 -26.5 0 0 537.18 617.47
  L 537.18 582.78
  A 1.74 1.74 0.0 0 0 535.81 581.08
  C 515.09 576.50 473.48 558.80 480.66 530.43
  C 484.39 515.73 501.17 507.60 515.02 504.28
  Q 534.31 499.66 553.51 501.65
  C 566.32 502.98 577.74 505.50 588.45 511.53
  Q 594.70 515.05 598.99 520.45
  C 605.91 529.15 605.87 540.68 600.55 550.29
  C 598.61 553.79 593.74 558.69 590.40 561.50
  C 578.27 571.69 563.98 577.56 548.59 581.39
  A 0.62 0.62 0.0 0 0 548.12 581.99
  Q 548.06 610.02 548.16 617.52
  C 548.20 620.12 551.00 621.70 553.54 623.01
  C 566.42 629.64 583.78 621.06 592.89 611.59
  C 595.00 609.39 597.93 611.82 597.79 614.46
  C 597.52 619.75 591.17 624.20 587.29 627.11
  Q 578.04 634.04 566.64 635.63
  C 558.72 636.73 549.57 633.38 543.36 628.94
  A 0.87 0.85 -44.9 0 0 542.35 628.95
  Z
  M 565.58 519.36
  A 23.12 8.33 0.0 0 0 542.46 511.03
  A 23.12 8.33 0.0 0 0 519.34 519.36
  A 23.12 8.33 0.0 0 0 542.46 527.69
  A 23.12 8.33 0.0 0 0 565.58 519.36
  Z"
/>
<ellipse fill="#ffffff" cx="542.46" cy="519.36" rx="23.12" ry="8.33"/>
</svg>
